<?xml version="1.0" encoding="UTF-8" standalone="no"?>
<!-- Created with Inkscape (http://www.inkscape.org/) -->

<svg
   xmlns:dc="http://purl.org/dc/elements/1.1/"
   xmlns:cc="http://creativecommons.org/ns#"
   xmlns:rdf="http://www.w3.org/1999/02/22-rdf-syntax-ns#"
   xmlns:svg="http://www.w3.org/2000/svg"
   xmlns="http://www.w3.org/2000/svg"
   xmlns:xlink="http://www.w3.org/1999/xlink"
   xmlns:sodipodi="http://sodipodi.sourceforge.net/DTD/sodipodi-0.dtd"
   xmlns:inkscape="http://www.inkscape.org/namespaces/inkscape"
   version="1.0"
   width="192.40625"
   height="192.4375"
   viewBox="0 0 295.052 462.281"
   id="Calque_1"
   xml:space="preserve"
   sodipodi:version="0.32"
   inkscape:version="0.47 r22583"
   sodipodi:docname="precent_gauage.svg"
   inkscape:output_extension="org.inkscape.output.svg.inkscape"
   sodipodi:modified="true"
   inkscape:export-filename="C:\Users\Unlogic\Downloads\percent_gauage_100.png"
   inkscape:export-xdpi="46.768433"
   inkscape:export-ydpi="46.768433"><metadata
   id="metadata89"><rdf:RDF><cc:Work
       rdf:about=""><dc:format>image/svg+xml</dc:format><dc:type
         rdf:resource="http://purl.org/dc/dcmitype/StillImage" /><dc:title></dc:title></cc:Work></rdf:RDF></metadata><sodipodi:namedview
   inkscape:window-height="694"
   inkscape:window-width="1020"
   inkscape:pageshadow="2"
   inkscape:pageopacity="0"
   guidetolerance="10.0"
   gridtolerance="10.0"
   objecttolerance="10.0"
   borderopacity="1.0"
   bordercolor="#666666"
   pagecolor="#ffffff"
   id="base"
   showguides="true"
   inkscape:guide-bbox="true"
   inkscape:zoom="2.8284272"
   inkscape:cx="36.159248"
   inkscape:cy="102.0865"
   inkscape:window-x="0"
   inkscape:window-y="24"
   inkscape:current-layer="Calque_1"
   showgrid="false" /><defs
   id="defs59"><linearGradient
   id="linearGradient3954"><stop
     id="stop3956"
     offset="0"
     style="stop-color:#ff0000;stop-opacity:1;" /><stop
     id="stop3958"
     offset="1"
     style="stop-color:#781e19;stop-opacity:1" /></linearGradient><linearGradient
   id="linearGradient3948"><stop
     id="stop3950"
     offset="0"
     style="stop-color:#ff0000;stop-opacity:1;" /><stop
     id="stop3952"
     offset="1"
     style="stop-color:#781e19;stop-opacity:1" /></linearGradient><linearGradient
   id="linearGradient3942"><stop
     id="stop3944"
     offset="0"
     style="stop-color:#ff0000;stop-opacity:1;" /><stop
     id="stop3946"
     offset="1"
     style="stop-color:#781e19;stop-opacity:1" /></linearGradient><linearGradient
   id="linearGradient3936"><stop
     id="stop3938"
     offset="0"
     style="stop-color:#ff0000;stop-opacity:1;" /><stop
     id="stop3940"
     offset="1"
     style="stop-color:#781e19;stop-opacity:1" /></linearGradient><linearGradient
   id="linearGradient3930"><stop
     id="stop3932"
     offset="0"
     style="stop-color:#ff0000;stop-opacity:1;" /><stop
     id="stop3934"
     offset="1"
     style="stop-color:#781e19;stop-opacity:1" /></linearGradient><linearGradient
   id="linearGradient3924"><stop
     id="stop3926"
     offset="0"
     style="stop-color:#ff0000;stop-opacity:1;" /><stop
     id="stop3928"
     offset="1"
     style="stop-color:#781e19;stop-opacity:1" /></linearGradient><linearGradient
   id="linearGradient3918"><stop
     id="stop3920"
     offset="0"
     style="stop-color:#ff0000;stop-opacity:1;" /><stop
     id="stop3922"
     offset="1"
     style="stop-color:#781e19;stop-opacity:1" /></linearGradient><linearGradient
   id="linearGradient3912"><stop
     id="stop3914"
     offset="0"
     style="stop-color:#ff0000;stop-opacity:1;" /><stop
     id="stop3916"
     offset="1"
     style="stop-color:#781e19;stop-opacity:1" /></linearGradient><linearGradient
   id="linearGradient3906"><stop
     id="stop3908"
     offset="0"
     style="stop-color:#ff0000;stop-opacity:1;" /><stop
     id="stop3910"
     offset="1"
     style="stop-color:#781e19;stop-opacity:1" /></linearGradient><linearGradient
   id="linearGradient3900"><stop
     style="stop-color:#ff0000;stop-opacity:1;"
     offset="0"
     id="stop3902" /><stop
     style="stop-color:#781e19;stop-opacity:1"
     offset="1"
     id="stop3904" /></linearGradient><inkscape:perspective
   sodipodi:type="inkscape:persp3d"
   inkscape:vp_x="0 : 96.21875 : 1"
   inkscape:vp_y="0 : 1000 : 0"
   inkscape:vp_z="192.40625 : 96.21875 : 1"
   inkscape:persp3d-origin="96.203125 : 64.145833 : 1"
   id="perspective107" />
	
	
	

		
		
	<radialGradient
   inkscape:collect="always"
   xlink:href="#XMLID_4_"
   id="radialGradient8591"
   cx="156.647"
   cy="230.46487"
   fx="156.647"
   fy="230.46487"
   r="178.96686"
   gradientTransform="matrix(1,0,0,1.0335571,0,-7.7337215)"
   gradientUnits="userSpaceOnUse" />





<radialGradient
   inkscape:collect="always"
   xlink:href="#XMLID_4_"
   id="radialGradient2341"
   gradientUnits="userSpaceOnUse"
   gradientTransform="matrix(1,0,0,1.0335571,0,-7.7337215)"
   cx="156.647"
   cy="230.46487"
   fx="156.647"
   fy="230.46487"
   r="178.96686" /><inkscape:perspective
   id="perspective3004"
   inkscape:persp3d-origin="0.5 : 0.33333333 : 1"
   inkscape:vp_z="1 : 0.5 : 1"
   inkscape:vp_y="0 : 1000 : 0"
   inkscape:vp_x="0 : 0.5 : 1"
   sodipodi:type="inkscape:persp3d" /><inkscape:perspective
   id="perspective3004-9"
   inkscape:persp3d-origin="0.5 : 0.33333333 : 1"
   inkscape:vp_z="1 : 0.5 : 1"
   inkscape:vp_y="0 : 1000 : 0"
   inkscape:vp_x="0 : 0.5 : 1"
   sodipodi:type="inkscape:persp3d" /><inkscape:perspective
   id="perspective3004-4"
   inkscape:persp3d-origin="0.5 : 0.33333333 : 1"
   inkscape:vp_z="1 : 0.5 : 1"
   inkscape:vp_y="0 : 1000 : 0"
   inkscape:vp_x="0 : 0.5 : 1"
   sodipodi:type="inkscape:persp3d" /><inkscape:perspective
   id="perspective3073"
   inkscape:persp3d-origin="0.5 : 0.33333333 : 1"
   inkscape:vp_z="1 : 0.5 : 1"
   inkscape:vp_y="0 : 1000 : 0"
   inkscape:vp_x="0 : 0.5 : 1"
   sodipodi:type="inkscape:persp3d" /><filter
   inkscape:collect="always"
   id="filter3741"><feGaussianBlur
     inkscape:collect="always"
     stdDeviation="1.8199004"
     id="feGaussianBlur3743" /></filter><inkscape:perspective
   id="perspective2967"
   inkscape:persp3d-origin="0.5 : 0.33333333 : 1"
   inkscape:vp_z="1 : 0.5 : 1"
   inkscape:vp_y="0 : 1000 : 0"
   inkscape:vp_x="0 : 0.5 : 1"
   sodipodi:type="inkscape:persp3d" /><inkscape:perspective
   id="perspective2967-9"
   inkscape:persp3d-origin="0.5 : 0.33333333 : 1"
   inkscape:vp_z="1 : 0.5 : 1"
   inkscape:vp_y="0 : 1000 : 0"
   inkscape:vp_x="0 : 0.5 : 1"
   sodipodi:type="inkscape:persp3d" /><inkscape:perspective
   id="perspective2967-4"
   inkscape:persp3d-origin="0.5 : 0.33333333 : 1"
   inkscape:vp_z="1 : 0.5 : 1"
   inkscape:vp_y="0 : 1000 : 0"
   inkscape:vp_x="0 : 0.5 : 1"
   sodipodi:type="inkscape:persp3d" /><inkscape:perspective
   id="perspective2967-1"
   inkscape:persp3d-origin="0.5 : 0.33333333 : 1"
   inkscape:vp_z="1 : 0.5 : 1"
   inkscape:vp_y="0 : 1000 : 0"
   inkscape:vp_x="0 : 0.5 : 1"
   sodipodi:type="inkscape:persp3d" /><inkscape:perspective
   id="perspective2967-14"
   inkscape:persp3d-origin="0.5 : 0.33333333 : 1"
   inkscape:vp_z="1 : 0.5 : 1"
   inkscape:vp_y="0 : 1000 : 0"
   inkscape:vp_x="0 : 0.5 : 1"
   sodipodi:type="inkscape:persp3d" /><inkscape:perspective
   id="perspective2967-6"
   inkscape:persp3d-origin="0.5 : 0.33333333 : 1"
   inkscape:vp_z="1 : 0.5 : 1"
   inkscape:vp_y="0 : 1000 : 0"
   inkscape:vp_x="0 : 0.5 : 1"
   sodipodi:type="inkscape:persp3d" /><inkscape:perspective
   id="perspective2967-8"
   inkscape:persp3d-origin="0.5 : 0.33333333 : 1"
   inkscape:vp_z="1 : 0.5 : 1"
   inkscape:vp_y="0 : 1000 : 0"
   inkscape:vp_x="0 : 0.5 : 1"
   sodipodi:type="inkscape:persp3d" /><inkscape:perspective
   id="perspective2967-43"
   inkscape:persp3d-origin="0.5 : 0.33333333 : 1"
   inkscape:vp_z="1 : 0.5 : 1"
   inkscape:vp_y="0 : 1000 : 0"
   inkscape:vp_x="0 : 0.5 : 1"
   sodipodi:type="inkscape:persp3d" /><inkscape:perspective
   id="perspective2967-87"
   inkscape:persp3d-origin="0.5 : 0.33333333 : 1"
   inkscape:vp_z="1 : 0.5 : 1"
   inkscape:vp_y="0 : 1000 : 0"
   inkscape:vp_x="0 : 0.5 : 1"
   sodipodi:type="inkscape:persp3d" /><inkscape:perspective
   id="perspective2967-86"
   inkscape:persp3d-origin="0.5 : 0.33333333 : 1"
   inkscape:vp_z="1 : 0.5 : 1"
   inkscape:vp_y="0 : 1000 : 0"
   inkscape:vp_x="0 : 0.5 : 1"
   sodipodi:type="inkscape:persp3d" /></defs>
<symbol
   viewBox="-50.393 -23.148 100.786 46.297"
   transform="translate(-90.40625,-262.5625)"
   id="Nuages_de_temp  te">
	<linearGradient
   x1="-7.4678001"
   y1="-4.4657998"
   x2="-7.4678001"
   y2="22.6485"
   id="XMLID_3_"
   gradientUnits="userSpaceOnUse">
		<stop
   style="stop-color:#417ba1;stop-opacity:1"
   offset="0.1067"
   id="stop5" />
		<stop
   style="stop-color:#a8bdd0;stop-opacity:1"
   offset="0.42129999"
   id="stop7" />
		<stop
   style="stop-color:#dbe7ed;stop-opacity:1"
   offset="0.736"
   id="stop9" />
		<stop
   style="stop-color:#d7e3eb;stop-opacity:1"
   offset="0.78930002"
   id="stop11" />
		<stop
   style="stop-color:#c9d8e3;stop-opacity:1"
   offset="0.84990001"
   id="stop13" />
		<stop
   style="stop-color:#b2c6d8;stop-opacity:1"
   offset="0.91399997"
   id="stop15" />
		<stop
   style="stop-color:#93afc9;stop-opacity:1"
   offset="0.98009998"
   id="stop17" />
		<stop
   style="stop-color:#88a7c4;stop-opacity:1"
   offset="1"
   id="stop19" />
	</linearGradient>
	<path
   d="M -9.8,12.619 C -6.773,30.258 19.767,22.436 10.762,6.088 C 18.541,7.846 22.204,1.398 22.661,-4.466 L -36.286,-4.466 C -39.732,0.436 -36.232,10.436 -27.473,8.432 C -27.733,19.437 -16.733,22.937 -9.8,12.619 z "
   style="fill:url(#XMLID_3_);stroke:#00618e;stroke-linecap:round;stroke-linejoin:round"
   id="path21" />
	<linearGradient
   x1="0"
   y1="-22.648399"
   x2="-1.490755e-06"
   y2="11.4561"
   id="XMLID_4_"
   gradientUnits="userSpaceOnUse">
		<stop
   style="stop-color:#2c3945;stop-opacity:1;"
   offset="0.1067"
   id="stop24" />
		<stop
   style="stop-color:#363d43;stop-opacity:1;"
   offset="0.264"
   id="stop26" />
		<stop
   style="stop-color:#a3aeb4;stop-opacity:1;"
   offset="0.61799997"
   id="stop28" />
		<stop
   style="stop-color:#cddce5;stop-opacity:1"
   offset="0.6954"
   id="stop30" />
		<stop
   style="stop-color:#b5c5d1;stop-opacity:1;"
   offset="0.77179998"
   id="stop32" />
		<stop
   style="stop-color:#adc3d4;stop-opacity:1"
   offset="0.8477"
   id="stop34" />
		<stop
   style="stop-color:#90adc5;stop-opacity:1"
   offset="0.92339998"
   id="stop36" />
		<stop
   style="stop-color:#6a93b3;stop-opacity:1"
   offset="0.99830002"
   id="stop38" />
		<stop
   style="stop-color:#6a93b3;stop-opacity:1"
   offset="1"
   id="stop40" />
	</linearGradient>
	<path
   d="M -6.955,-10.018 C -6.955,-10.018 -5.746,11.456 13.608,11.456 C 32.961,11.456 32.355,-8.756 32.355,-8.756 C 39.612,-4.965 49.894,-12.544 49.894,-22.649 L -49.892,-22.649 C -49.288,-16.334 -44.45,-9.386 -34.168,-11.281 C -29.332,-1.809 -17.84,4.509 -6.955,-10.018 z "
   style="fill:url(#XMLID_4_);stroke:#00618e;stroke-linecap:round;stroke-linejoin:round"
   id="path42" />
</symbol>


<use
   transform="matrix(1,0,0,-1,-40.01315,-239.4141)"
   id="use44"
   x="-50.393002"
   y="-23.148001"
   width="100.786"
   height="46.297001" /><path
   sodipodi:type="arc"
   style="color:#000000;fill:#000000;fill-opacity:1;fill-rule:nonzero;stroke:none;stroke-width:8.61600018;marker:none;visibility:visible;display:inline;overflow:visible;enable-background:accumulate"
   id="path9610"
   sodipodi:cx="156.647"
   sodipodi:cy="230.46487"
   sodipodi:rx="178.96686"
   sodipodi:ry="184.97246"
   d="m 335.61386,230.46487 a 178.96686,184.97246 0 1 1 -357.933715,0 178.96686,184.97246 0 1 1 357.933715,0 z"
   transform="matrix(1.2286357,0,0,1.1880318,-45.242113,-41.772527)" /><path
   id="path2254"
   style="fill:#008000;fill-opacity:1;fill-rule:evenodd;stroke:none"
   d="m -71.995252,228.07568 -0.02455,5.51446 61.210798,0.19375 0.02456,-5.51443 -61.210805,-0.19378 z" /><path
   id="path3228"
   style="fill:#008000;fill-opacity:1;fill-rule:evenodd;stroke:none"
   d="m -39.363038,209.17453 -0.394015,5.47039 29.751052,2.11407 0.394016,-5.47038 -29.751053,-2.11408 z" /><path
   id="path3230"
   style="fill:#008000;fill-opacity:1;fill-rule:evenodd;stroke:none"
   d="m -35.972868,189.52505 -1.048315,5.43112 29.2079019,5.6931 1.0483137,-5.43113 -29.2079006,-5.69309 z" /><path
   id="path3232"
   style="fill:#008000;fill-opacity:1;fill-rule:evenodd;stroke:none"
   d="m -30.725805,170.66557 -1.587024,5.28934 28.7397889,8.75129 1.5870218,-5.28933 -28.7397867,-8.7513 z" /><path
   id="path3234"
   style="fill:#008000;fill-opacity:1;fill-rule:evenodd;stroke:none"
   d="m -23.390662,152.39109 -2.161494,5.01408 27.501778,11.87272 2.2103496,-5.09869 -27.5506336,-11.78811 z" /><path
   id="path3236"
   style="fill:#008000;fill-opacity:1;fill-rule:evenodd;stroke:none"
   d="m -41.326495,119.35716 -2.71808,4.80557 53.3999335,30.04067 2.7180815,-4.80557 -53.399935,-30.04067 z" /><path
   id="path3240"
   style="fill:#008000;fill-opacity:1;fill-rule:evenodd;stroke:none"
   d="m -2.9804587,118.30986 -3.2258114,4.51243 24.3391951,17.15504 3.225814,-4.51242 -24.3391977,-17.15505 z" /><path
   id="path3242"
   style="fill:#008000;fill-opacity:1;fill-rule:evenodd;stroke:none"
   d="m 9.4189094,103.18487 -3.6000663,4.18352 22.6017549,19.4804 3.600059,-4.18353 -22.6017476,-19.48039 z" /><path
   id="path3244"
   style="fill:#008000;fill-opacity:1;fill-rule:evenodd;stroke:none"
   d="M 23.497617,89.255106 19.4208,92.994127 39.622503,115.26353 43.699327,111.52452 23.497617,89.255106 z" /><path
   id="path3246"
   style="fill:#008000;fill-opacity:1;fill-rule:evenodd;stroke:none"
   d="m 39.301028,77.223731 -4.486842,3.276641 18.036361,24.065638 4.402221,-3.3255 -17.95174,-24.016779 z" /><path
   id="path3248"
   style="fill:#008000;fill-opacity:1;fill-rule:evenodd;stroke:none"
   d="m 40.110606,39.6677 -4.781265,2.711752 30.662404,53.300569 4.830136,-2.79638 L 40.110606,39.6677 z" /><path
   id="path3250"
   style="fill:#008000;fill-opacity:1;fill-rule:evenodd;stroke:none"
   d="m 73.427689,57.492954 -5.0757,2.146869 11.867961,28.007441 5.14243,-2.164749 -11.934691,-27.989561 z" /><path
   id="path3252"
   style="fill:#008000;fill-opacity:1;fill-rule:evenodd;stroke:none"
   d="m 92.295698,51.292793 -5.303371,1.564094 8.575079,28.532114 5.303364,-1.564092 -8.575072,-28.532116 z" /><path
   id="path3254"
   style="fill:#008000;fill-opacity:1;fill-rule:evenodd;stroke:none"
   d="m 105.86995,47.226398 6.0974,29.696719 5.42855,-1.09692 -6.11529,-29.763459 -5.41066,1.16366 z" /><path
   id="path3256"
   style="fill:#008000;fill-opacity:1;fill-rule:evenodd;stroke:none"
   d="m 125.20899,44.118913 3.11554,29.780398 5.50488,-0.545127 -3.11553,-29.780401 -5.50489,0.545127 z" /><path
   id="path3258"
   style="fill:#008000;fill-opacity:1;fill-rule:evenodd;stroke:none"
   d="m 144.80652,11.542983 0.26031,61.303724 5.51445,0.02456 -0.19356,-61.32161 -5.5812,-0.0067 z" /><path
   id="path3260"
   style="fill:#008000;fill-opacity:1;fill-rule:evenodd;stroke:none"
   d="m 164.7886,43.670969 -3.35595,29.654627 5.45731,0.612114 3.35594,-29.654624 -5.4573,-0.612117 z" /><path
   id="path3262"
   style="fill:#008000;fill-opacity:1;fill-rule:evenodd;stroke:none"
   d="m 184.05903,46.447395 -6.1293,29.181721 5.38226,1.132942 6.12929,-29.181722 -5.38225,-1.132941 z" /><path
   id="path3264"
   style="fill:#008000;fill-opacity:1;fill-rule:evenodd;stroke:none"
   d="m 203.13181,51.422712 -9.34365,28.397792 5.25835,1.738383 9.34367,-28.397792 -5.25837,-1.738383 z" /><path
   id="path3266"
   style="fill:#008000;fill-opacity:1;fill-rule:evenodd;stroke:none"
   d="m 221.6279,57.983167 -12.34469,27.342115 5.03196,2.228227 12.34471,-27.342116 -5.03198,-2.228226 z" /><path
   id="path3268"
   style="fill:#008000;fill-opacity:1;fill-rule:evenodd;stroke:none"
   d="m 255.11112,39.855415 -30.83803,52.826744 4.82346,2.784811 30.83801,-52.826736 -4.82344,-2.784819 z" /><path
   id="path3270"
   style="fill:#008000;fill-opacity:1;fill-rule:evenodd;stroke:none"
   d="m 256.07253,77.079973 -17.47086,24.495357 4.49453,3.15907 17.48875,-24.428624 -4.51242,-3.225803 z" /><path
   id="path3272"
   style="fill:#008000;fill-opacity:1;fill-rule:evenodd;stroke:none"
   d="m 271.59795,89.372046 -20.22412,22.228774 4.06794,3.70259 20.22412,-22.228799 -4.06794,-3.702565 z" /><path
   id="path3274"
   style="fill:#008000;fill-opacity:1;fill-rule:evenodd;stroke:none"
   d="m 285.60754,103.21477 -22.32306,20.0015 3.67228,4.09471 22.34094,-19.93475 -3.69016,-4.16146 z" /><path
   id="path3276"
   style="fill:#008000;fill-opacity:1;fill-rule:evenodd;stroke:none"
   d="m 298.11438,118.39007 -24.00846,17.44879 3.25875,4.4201 24.02636,-17.38205 -3.27665,-4.48684 z" /><path
   id="path3278"
   style="fill:#008000;fill-opacity:1;fill-rule:evenodd;stroke:none"
   d="m 336.27106,119.0387 -53.00264,30.43953 2.77852,4.76337 52.95377,-30.35488 -2.72965,-4.84802 z" /><path
   id="path3280"
   style="fill:#008000;fill-opacity:1;fill-rule:evenodd;stroke:none"
   d="m 318.3564,152.02208 -27.28161,12.17419 2.28033,5.03992 27.21489,-12.1563 -2.21361,-5.05781 z" /><path
   id="path3282"
   style="fill:#008000;fill-opacity:1;fill-rule:evenodd;stroke:none"
   d="m 325.57076,170.40376 -28.30443,9.15783 1.69758,5.26761 28.30443,-9.15783 -1.69758,-5.26761 z" /><path
   id="path3284"
   style="fill:#008000;fill-opacity:1;fill-rule:evenodd;stroke:none"
   d="m 301.65589,195.40976 1.16365,5.41067 29.37611,-6.2261 -1.16365,-5.41067 -29.37611,6.2261 z" /><path
   id="path3290"
   style="fill:#008000;fill-opacity:1;fill-rule:evenodd;stroke:none"
   d="m 304.61294,211.78483 0.69649,5.53584 29.60637,-3.4981 -0.67858,-5.46911 -29.62428,3.43137 z" /><path
   id="path3292"
   style="fill:#ffff00;fill-opacity:1;fill-rule:evenodd;stroke:none"
   d="m 305.89675,228.32211 -0.007,5.58121 61.1083,0.0781 0.0246,-5.51444 -61.12618,-0.14492 z" /><path
   id="path3294"
   style="fill:#ffff00;fill-opacity:1;fill-rule:evenodd;stroke:none"
   d="m 304.97334,245.1647 -0.46075,5.48826 29.82739,2.66586 0.46075,-5.48825 -29.82739,-2.66587 z" /><path
   id="path3296"
   style="fill:#ffff00;fill-opacity:1;fill-rule:evenodd;stroke:none"
   d="m 303.02971,261.13615 -1.19968,5.40014 29.18652,6.41414 1.19967,-5.40015 -29.18651,-6.41413 z" /><path
   id="path4267"
   style="fill:#ffff00;fill-opacity:1;fill-rule:evenodd;stroke:none"
   d="m 298.88367,277.69775 -1.73839,5.25836 28.42879,9.19228 1.67164,-5.24047 -28.36204,-9.21017 z" /><path
   id="path4269"
   style="fill:#ffff00;fill-opacity:1;fill-rule:evenodd;stroke:none"
   d="m 293.38718,292.68985 -2.29495,5.04985 27.17287,12.24697 2.29495,-5.04985 -27.17287,-12.24697 z" /><path
   id="path4271"
   style="fill:#d3241c;fill-opacity:1;fill-rule:evenodd;stroke:none"
   d="m 285.88374,307.93362 -2.80269,4.75669 53.04006,30.56628 2.78481,-4.82346 -53.02218,-30.49951 z" /><path
   id="path4273"
   style="fill:#d3241c;fill-opacity:1;fill-rule:evenodd;stroke:none"
   d="m 277.25273,321.9058 -3.31043,4.46358 24.31302,17.59124 3.24371,-4.4457 -24.2463,-17.60912 z" /><path
   id="path4275"
   style="fill:#d3241c;fill-opacity:1;fill-rule:evenodd;stroke:none"
   d="m 266.76485,335.08801 -3.70256,4.06791 22.35747,19.9035 3.68468,-4.13466 -22.33959,-19.83675 z" /><path
   id="path4277"
   style="fill:#d3241c;fill-opacity:1;fill-rule:evenodd;stroke:none"
   d="m 255.54986,346.89136 -4.09473,3.67227 19.97885,21.97147 4.0947,-3.67227 -19.97882,-21.97147 z" /><path
   id="path4279"
   style="fill:#d3241c;fill-opacity:1;fill-rule:evenodd;stroke:none"
   d="m 242.758,357.61506 -4.48682,3.27663 17.649,23.95483 4.46896,-3.34337 -17.63114,-23.88809 z" /><path
   id="path4281"
   style="fill:#d3241c;fill-opacity:1;fill-rule:evenodd;stroke:none"
   d="m 228.93633,366.89797 -4.78128,2.71176 30.37277,53.02051 4.7634,-2.7785 -30.35489,-52.95377 z" /><path
   id="path4301"
   style="fill:#008000;fill-opacity:1;fill-rule:evenodd;stroke:none"
   d="m 65.790979,366.69269 -30.46856,52.87082 4.738824,2.73596 30.553184,-52.82196 -4.823448,-2.78482 z" /><path
   id="path4303"
   style="fill:#008000;fill-opacity:1;fill-rule:evenodd;stroke:none"
   d="m 52.583884,357.71362 -17.426791,24.1259 4.445683,3.24367 17.426795,-24.12588 -4.445687,-3.24369 z" /><path
   id="path4305"
   style="fill:#008000;fill-opacity:1;fill-rule:evenodd;stroke:none"
   d="m 39.663854,346.86936 -20.059657,22.04166 4.067927,3.70256 20.059659,-22.04164 -4.067929,-3.70258 z" /><path
   id="path4307"
   style="fill:#008000;fill-opacity:1;fill-rule:evenodd;stroke:none"
   d="M 28.256153,335.26223 6.1642852,355.0587 9.8365669,359.1534 31.928434,339.35692 28.256153,335.26223 z" /><path
   id="path4309"
   style="fill:#008000;fill-opacity:1;fill-rule:evenodd;stroke:none"
   d="m 17.740954,321.91378 -23.9417393,17.43092 3.276641,4.48685 23.9417383,-17.43092 -3.27664,-4.48685 z" /><path
   id="path4311"
   style="fill:#008000;fill-opacity:1;fill-rule:evenodd;stroke:none"
   d="m 9.2815835,308.22908 -53.1766685,30.05698 2.711747,4.78125 53.176677,-30.05695 -2.7117555,-4.78128 z" /><path
   id="path4313"
   style="fill:#008000;fill-opacity:1;fill-rule:evenodd;stroke:none"
   d="m 2.12474,293.26548 -27.437765,11.85837 2.213603,5.0578 L 4.2716041,298.34116 2.12474,293.26548 z" /><path
   id="path4315"
   style="fill:#008000;fill-opacity:1;fill-rule:evenodd;stroke:none"
   d="m -3.6353751,277.64148 -28.5273229,8.85992 1.630831,5.28547 28.5273277,-8.85989 -1.6308358,-5.2855 z" /><path
   id="path4317"
   style="fill:#008000;fill-opacity:1;fill-rule:evenodd;stroke:none"
   d="m -37.023292,267.56055 1.230399,5.39278 29.1043663,-6.4394 -1.1636591,-5.41066 -29.1711062,6.45728 z" /><path
   id="path4319"
   style="fill:#008000;fill-opacity:1;fill-rule:evenodd;stroke:none"
   d="m -39.766111,247.98072 0.629745,5.55372 29.5575081,-3.41346 -0.6118611,-5.48698 -29.575392,3.34672 z" /><path
   style="fill:none;stroke:#000000;stroke-width:1px;stroke-linecap:butt;stroke-linejoin:miter;stroke-opacity:1"
   d="m 72.935243,92.270895 c -1.524309,2.640186 -0.540267,0.935763 0,0 z"
   id="path2241" /><path
   sodipodi:type="arc"
   style="color:#000000;fill:none;stroke:#00001c;stroke-width:1.99645173999999990;stroke-linecap:butt;stroke-linejoin:miter;stroke-miterlimit:4;stroke-opacity:1;stroke-dasharray:none;stroke-dashoffset:0;marker:none;visibility:visible;display:inline;overflow:visible;enable-background:accumulate;opacity:0.9;filter:url(#filter3741)"
   id="path8633"
   sodipodi:cx="156.647"
   sodipodi:cy="230.46487"
   sodipodi:rx="178.96686"
   sodipodi:ry="184.97246"
   d="m 335.61386,230.46487 a 178.96686,184.97246 0 1 1 -357.933715,0 178.96686,184.97246 0 1 1 357.933715,0 z"
   transform="matrix(1.19155,-0.31927485,0.308826,1.1525544,-110.60634,15.550248)"
   inkscape:export-xdpi="93"
   inkscape:export-ydpi="93" /><flowRoot
   xml:space="preserve"
   id="flowRoot2986-1"
   style="font-size:28px;font-style:normal;font-weight:normal;fill:#ffffff;fill-opacity:1;stroke:none;font-family:Arial;-inkscape-font-specification:Arial"
   transform="matrix(1.2764097,0,0,1.2764097,-73.283363,208.90069)"><flowRegion
     id="flowRegion2988-7"><rect
       id="rect2990-4"
       width="56.367603"
       height="27.330288"
       x="69.5"
       y="60.937504"
       style="font-size:28px;fill:#ffffff" /></flowRegion><flowPara
     id="flowPara2992-0">10<flowSpan
   style="font-size:18.820287"
   id="flowSpan3497">%</flowSpan></flowPara></flowRoot><flowRoot
   xml:space="preserve"
   id="flowRoot2986-1-1"
   style="font-size:28px;font-style:normal;font-weight:normal;fill:#ffffff;fill-opacity:1;stroke:none;font-family:Arial;-inkscape-font-specification:Arial"
   transform="matrix(1.2764097,0,0,1.2764097,-15.779122,253.89995)"><flowRegion
     id="flowRegion2988-7-7"><rect
       id="rect2990-4-4"
       width="41.063457"
       height="27.330288"
       x="69.5"
       y="60.937504"
       style="font-size:28px;fill:#ffffff" /></flowRegion><flowPara
     id="flowPara2992-0-0">0<flowSpan
   style="font-size:18.820287"
   id="flowSpan3495">%</flowSpan></flowPara></flowRoot><flowRoot
   xml:space="preserve"
   id="flowRoot2986-1-4"
   style="font-size:28px;font-style:normal;font-weight:normal;fill:#ffffff;fill-opacity:1;stroke:none;font-family:Arial;-inkscape-font-specification:Arial"
   transform="matrix(1.2764097,0,0,1.2764097,-70.693479,66.200236)"><flowRegion
     id="flowRegion2988-7-8"><rect
       id="rect2990-4-8"
       width="57.033001"
       height="27.330288"
       x="69.5"
       y="60.937504"
       style="font-size:28px;fill:#ffffff" /></flowRegion><flowPara
     id="flowPara2992-0-2">30<flowSpan
   style="font-size:18.820287"
   id="flowSpan3501">%</flowSpan></flowPara></flowRoot><flowRoot
   xml:space="preserve"
   id="flowRoot2986-1-5"
   style="font-size:28px;font-style:normal;font-weight:normal;fill:#ffffff;fill-opacity:1;stroke:none;font-family:Arial;-inkscape-font-specification:Arial"
   transform="matrix(1.2764097,0,0,1.2764097,-31.041879,23.734239)"><flowRegion
     id="flowRegion2988-7-5"><rect
       id="rect2990-4-1"
       width="57.033001"
       height="27.330288"
       x="69.5"
       y="60.937504"
       style="font-size:28px;fill:#ffffff" /></flowRegion><flowPara
     id="flowPara2992-0-7">40<flowSpan
   style="font-size:18.820287"
   id="flowSpan3503">%</flowSpan></flowPara></flowRoot><flowRoot
   xml:space="preserve"
   id="flowRoot2986-1-15"
   style="font-size:28px;font-style:normal;font-weight:normal;fill:#ffffff;fill-opacity:1;stroke:none;font-family:Arial;-inkscape-font-specification:Arial"
   transform="matrix(1.2764097,0,0,1.2764097,30.375597,0.24471532)"><flowRegion
     id="flowRegion2988-7-2"><rect
       id="rect2990-4-7"
       width="57.033001"
       height="27.995686"
       x="69.5"
       y="60.937504"
       style="font-size:28px;fill:#ffffff" /></flowRegion><flowPara
     id="flowPara2992-0-6">50<flowSpan
   style="font-size:18.820287"
   id="flowSpan3505">%</flowSpan></flowPara></flowRoot><flowRoot
   xml:space="preserve"
   id="flowRoot2986-1-2"
   style="font-size:28px;font-style:normal;font-weight:normal;fill:#ffffff;fill-opacity:1;stroke:none;font-family:Arial;-inkscape-font-specification:Arial"
   transform="matrix(1.2764097,0,0,1.2764097,-89.378518,135.84447)"><flowRegion
     id="flowRegion2988-7-3"><rect
       id="rect2990-4-2"
       width="58.363796"
       height="29.326481"
       x="69.5"
       y="60.937504"
       style="font-size:28px;fill:#ffffff" /></flowRegion><flowPara
     id="flowPara2992-0-21">20<flowSpan
   style="font-size:18.820287"
   id="flowSpan3499">%</flowSpan></flowPara></flowRoot><flowRoot
   xml:space="preserve"
   id="flowRoot2986-1-8"
   style="font-size:28px;font-style:normal;font-weight:normal;fill:#ffffff;fill-opacity:1;stroke:none;font-family:Arial;-inkscape-font-specification:Arial"
   transform="matrix(1.2764097,0,0,1.2764097,147.87319,135.84447)"><flowRegion
     id="flowRegion2988-7-57"><rect
       id="rect2990-4-6"
       width="57.698399"
       height="27.330288"
       x="69.5"
       y="60.937504"
       style="font-size:28px;fill:#ffffff" /></flowRegion><flowPara
     id="flowPara2992-0-1">80<flowSpan
   style="font-size:18.820287"
   id="flowSpan3511">%</flowSpan></flowPara></flowRoot><flowRoot
   xml:space="preserve"
   id="flowRoot2986-1-9"
   style="font-size:28px;font-style:normal;font-weight:normal;fill:#ffffff;fill-opacity:1;stroke:none;font-family:Arial;-inkscape-font-specification:Arial"
   transform="matrix(1.2764097,0,0,1.2764097,122.97647,209.17743)"><flowRegion
     id="flowRegion2988-7-27"><rect
       id="rect2990-4-9"
       width="57.698399"
       height="27.330288"
       x="69.5"
       y="60.937504"
       style="font-size:28px;fill:#ffffff" /></flowRegion><flowPara
     id="flowPara2992-0-5">90<flowSpan
   style="font-size:18.820287"
   id="flowSpan3513">%</flowSpan></flowPara></flowRoot><flowRoot
   xml:space="preserve"
   id="flowRoot2986-1-12"
   style="font-size:28px;font-style:normal;font-weight:normal;fill:#ffffff;fill-opacity:1;stroke:none;font-family:Arial;-inkscape-font-specification:Arial"
   transform="matrix(1.2764097,0,0,1.2764097,132.58543,70.446837)"><flowRegion
     id="flowRegion2988-7-33"><rect
       id="rect2990-4-41"
       width="56.367603"
       height="27.995686"
       x="69.5"
       y="60.937504"
       style="font-size:28px;fill:#ffffff" /></flowRegion><flowPara
     id="flowPara2992-0-13">70<flowSpan
   style="font-size:18.820287"
   id="flowSpan3509">%</flowSpan></flowPara></flowRoot><flowRoot
   xml:space="preserve"
   id="flowRoot2986-1-42"
   style="font-size:28px;font-style:normal;font-weight:normal;fill:#ffffff;fill-opacity:1;stroke:none;font-family:Arial;-inkscape-font-specification:Arial"
   transform="matrix(1.2764097,0,0,1.2764097,94.632471,24.292118)"><flowRegion
     id="flowRegion2988-7-77"><rect
       id="rect2990-4-93"
       width="57.033001"
       height="27.995686"
       x="69.5"
       y="60.937504"
       style="font-size:28px;fill:#ffffff" /></flowRegion><flowPara
     id="flowPara2992-0-19">60<flowSpan
   style="font-size:18.820287"
   id="flowSpan3507">%</flowSpan></flowPara></flowRoot><flowRoot
   xml:space="preserve"
   id="flowRoot2986-1-50"
   style="font-size:28px;font-style:normal;font-weight:normal;fill:#ffffff;fill-opacity:1;stroke:none;font-family:Arial;-inkscape-font-specification:Arial"
   transform="matrix(1.2764097,0,0,1.2764097,58.45316,254.74927)"><flowRegion
     id="flowRegion2988-7-28"><rect
       id="rect2990-4-60"
       width="73.002541"
       height="27.330288"
       x="69.5"
       y="60.937504"
       style="font-size:28px;fill:#ffffff" /></flowRegion><flowPara
     id="flowPara2992-0-24">100<flowSpan
   style="font-size:18.820287"
   id="flowSpan3515">%</flowSpan></flowPara></flowRoot></svg>