<?xml version="1.0" standalone="no"?>
<!DOCTYPE svg PUBLIC "-//W3C//DTD SVG 1.1//EN" "http://www.w3.org/Graphics/SVG/1.1/DTD/svg11.dtd" >
<svg xmlns="http://www.w3.org/2000/svg">
<metadata>Generated by IcoMoon</metadata>
<defs>
<font id="riges" horiz-adv-x="1024">
<font-face units-per-em="1024" ascent="960" descent="-64" />
<missing-glyph horiz-adv-x="1024" />
<glyph unicode="&#x20;" d="" horiz-adv-x="512" />
<glyph unicode="&#x21;" d="M512 960l-512-930.909v-93.091h1024v93.091l-512 930.909zM558.545 29.091h-93.091v93.091h93.091v-93.091zM558.545 215.273h-93.091v372.364h93.091v-372.364z" />
<glyph unicode="&#x2a;" d="M1024 593.873l-370.409 1.769-141.405 364.358-149.504-364.358h-362.682l261.865-280.39-168.774-371.247 418.909 188.044 426.636-188.044-167.75 372.364z" />
<glyph unicode="&#x2b;" d="M1024 448c0-77.079-62.557-139.636-139.636-139.636h-744.727c-77.079 0-139.636 62.557-139.636 139.636v0c0 77.079 62.557 139.636 139.636 139.636h744.727c77.079 0 139.636-62.557 139.636-139.636v0zM651.636 75.636c0-77.079-62.557-139.636-139.636-139.636v0c-77.079 0-139.636 62.557-139.636 139.636v744.727c0 77.079 62.557 139.636 139.636 139.636v0c77.079 0 139.636-62.557 139.636-139.636v-744.727z" />
<glyph unicode="&#x2d;" d="M1024 460.8c0-77.079-62.557-139.636-139.636-139.636h-744.727c-77.079 0-139.636 62.557-139.636 139.636v0c0 77.079 62.557 139.636 139.636 139.636h744.727c77.079 0 139.636-62.557 139.636-139.636v0z" />
<glyph unicode="&#x3c;" d="M689.245-64l147.549 162.537-345.274 342.202 345.367 360.727-151.645 158.441-499.060-521.309 1.955-2.048-1.955-2.141z" />
<glyph unicode="&#x3e;" d="M334.755 960l-147.549-162.537 345.274-342.202-345.367-360.727 151.645-158.441 499.060 521.309-1.955 2.048 1.955 2.141z" />
<glyph unicode="&#x3f;" d="M558.545 252.695c0-30.745-24.924-55.668-55.668-55.668s-55.668 24.924-55.668 55.668c0 30.745 24.924 55.668 55.668 55.668 30.745 0 55.668-24.924 55.668-55.668zM552.588 361.519h-113.664c-17.687 123.904 110.964 112.547 110.964 180.317 0 37.050-23.831 56.972-59.020 56.972-32.582 0-56.413-17.222-80.151-41.612l-71.308 66.932c39.657 48.873 95.139 82.292 160.303 82.292 99.607 0 174.452-47.942 174.452-154.624 0-112.081-132.189-82.665-121.577-190.278zM512 820.364c205.359 0 372.364-167.005 372.364-372.364s-167.005-372.364-372.364-372.364-372.364 167.005-372.364 372.364 167.005 372.364 372.364 372.364zM512 960c-282.81 0-512-229.19-512-512s229.19-512 512-512 512 229.19 512 512-229.19 512-512 512v0z" />
<glyph unicode="&#x43;" d="M93.091 638.417l380.835-609.327 456.983 837.818h-152.343l-304.64-469.69-304.687 241.199z" />
<glyph unicode="&#x49;" d="M516.794 133.911c21.318 2.141 39.471 12.8 53.341 29.882l16.012-12.8c-20.294-24.529-47.988-38.4-80.012-38.4-66.141 0-102.4 37.329-102.4 88.529 0 33.047 9.635 71.494 17.082 116.317l35.188 190.929h-44.87l2.141 19.223h45.847c82.153 0 131.212 9.635 131.212 9.635l-73.542-403.316zM546.63 771.863c42.682 0 77.871-35.188 77.871-77.871 0-42.682-35.188-76.8-77.871-76.8-42.682 0-76.8 34.118-76.8 76.8 0 42.636 34.164 77.871 76.8 77.871z" />
<glyph unicode="&#x4c;" d="M837.818 662.497c0-17.129-13.902-31.030-31.030-31.030h-589.576c-17.129 0-31.030 13.902-31.030 31.030v31.030c0 17.129 13.902 31.030 31.030 31.030h589.576c17.129 0 31.030-13.902 31.030-31.030v-31.030zM837.818 445.285c0-17.129-13.902-31.030-31.030-31.030h-589.576c-17.129 0-31.030 13.902-31.030 31.030v31.030c0 17.129 13.902 31.030 31.030 31.030h589.576c17.129 0 31.030-13.902 31.030-31.030v-31.030zM837.818 228.073c0-17.129-13.902-31.030-31.030-31.030h-589.576c-17.129 0-31.030 13.902-31.030 31.030v31.030c0 17.129 13.902 31.030 31.030 31.030h589.576c17.129 0 31.030-13.902 31.030-31.030v-31.030z" />
<glyph unicode="&#x4d;" d="M837.818 960h-651.636c-102.865 0-186.182-83.316-186.182-186.182v-372.364c0-102.865 83.316-186.182 186.182-186.182h186.182v-279.273l372.364 279.273h93.091c102.865 0 186.182 83.316 186.182 186.182v372.364c0 102.865-83.316 186.182-186.182 186.182z" />
<glyph unicode="&#x53;" d="M930.909 135.168l-182.691 186.135c41.332 56.879 66.048 127.023 66.048 203.217 0 189.021-150.388 342.249-335.965 342.249-185.53 0-335.965-153.228-335.965-342.249 0-189.068 150.435-342.295 335.965-342.295 57.251 0 111.104 14.662 158.255 40.401l190.045-193.676 104.308 106.217zM238.359 524.521c0 135.028 107.427 244.457 239.942 244.457 132.561 0 239.942-109.428 239.942-244.457 0-135.028-107.427-244.503-239.942-244.503-132.515 0-239.942 109.475-239.942 244.503z" />
<glyph unicode="&#x54;" d="M560.441 731.547v42.279h131.218v96.881h-359.316v-96.881h131.218v-42.279c-168.769-23.718-298.825-168.885-298.825-344.863 0-192.641 155.516-348.737 347.265-348.737 191.789 0 347.265 156.097 347.265 348.737 0 175.976-130.016 321.145-298.825 344.863zM512 117.974c-147.805 0-267.551 120.29-267.551 268.713 0 148.385 119.785 268.636 267.551 268.636 147.805 0 267.551-120.25 267.551-268.636 0-148.385-119.747-268.713-267.551-268.713zM512 600.133v-212.986l157.065-143.192c34.219 37.823 55.068 88.045 55.068 143.192 0 117.654-94.942 212.986-212.133 212.986z" />
<glyph unicode="&#x57;" d="M465.455 75.636h-372.364v93.091h371.479zM531.642 269.498l-159.279-27.322 27.322 159.279zM798.982 820.374l131.945-131.945-376.187-376.187-131.945 131.945 376.187 376.187z" />
<glyph unicode="&#x58;" d="M306.654 783.488l-117.342-117.342 210.039-206.169-210.039-204.525 117.342-117.342 202.882 213.679 107.016 108.657zM834.688 666.146l-117.342 117.342-309.898-323.040 107.016-108.657 202.882-213.679 117.342 117.342-210.039 204.525z" />
<glyph unicode="&#x5e;" d="M0 270.755l162.537-147.549 342.202 345.274 360.727-345.367 158.441 151.645-521.309 499.060-2.048-1.955-2.141 1.955z" />
<glyph unicode="&#x5f;" d="M1024 625.245l-162.537 147.549-342.202-345.274-360.727 345.367-158.441-151.645 521.309-499.060 2.048 1.955 2.141-1.955z" />
<glyph unicode="&#x62;" d="M768 734.6v207.2h-512v-207.2h-256v-754.8h1024v754.8h-256zM341.4 857.6h341.2v-123h-341.2v123zM170.8 148.2v418h682.6v-418h-682.6z" />
<glyph unicode="&#x63;" d="M0 680.727l465.455-744.727 558.545 1024h-186.182l-372.364-574.092-372.364 294.819z" />
<glyph unicode="&#x64;" d="M651.636 480.489c0-61.068-37.516-110.685-83.782-110.685h-111.709c-46.266 0.093-83.782 49.617-83.782 110.685v368.826c0 61.161 37.516 110.685 83.782 110.685h111.709c46.266 0 83.782-49.524 83.782-110.685v-368.826zM558.545 215.273c-42.449-42.449-55.668-37.423-93.091 0l-275.735 285.51c-44.497 44.591-55.575 86.854-3.537 86.854h651.636c47.011 0 42.449-42.263-2.048-86.854l-277.225-285.51zM892.835-67.165h-761.67c-96.256 0-131.165 78.476-131.165 131.165v138.612c0 25.693 20.852 46.545 46.545 46.545s46.545-20.852 46.545-46.545v-138.612c0.745-25.135 13.591-38.074 38.074-38.074h761.67c25.041 0.745 38.074 13.498 38.074 38.074v138.612c0 25.693 20.852 46.545 46.545 46.545s46.545-20.852 46.545-46.545v-138.612c0-96.256-78.476-131.165-131.165-131.165z" />
<glyph unicode="&#x65;" d="M837.818 41.891h-744.727v745.937h279.273v91.881h-371.153v-930.909h929.699v372.364h-93.091zM558.545 972.8v-156.579h198.097l-321.443-321.35 110.778-110.778 321.35 321.443v-198.191h156.672v465.455z" />
<glyph unicode="&#x66;" d="M930.8 690.2v3.2h-3.2l-275.2 277-0.8-0.8v3.2h-558.6v-931c0-51.4 41.6-93 93-93h651.6c51.4 0 93 41.6 93 93v648.4h0.2zM576 618.2v263.6l262.6-263.6h-262.6z" />
<glyph unicode="&#x67;" d="M206.662 122.182v127.441c0 94.394 73.356 111.151 138.147 125.952 19.735 4.468 40.308 9.123 60.137 16.012 4.561 1.862 14.522 8.378 8.099 28.113-47.756 48.78-77.265 119.808-77.265 186.647 0 121.297 86.668 175.569 172.591 175.569 101.841 0 172.87-72.145 172.87-175.569 0-64.977-29.882-137.216-76.614-185.53-5.12-17.222-2.7-27.183 2.141-29.231 19.456-6.144 39.936-10.612 59.578-14.895 67.77-14.708 144.477-31.372 144.477-127.069v-127.441h-604.16zM325.26 410.205c8.099 1.862 16.012 4.282 24.204 6.33-22.621 24.483-68.422 25.786-111.057 39.284-2.7 0.838-19.828 8.285-9.123 39.471h-0.186c27.834 27.462 49.152 71.866 49.152 115.433 0 67.119-46.452 102.214-100.538 102.214-54.086 0-100.259-35.095-100.259-102.214 0-43.846 21.132-88.25 49.152-115.712 10.892-27.462-8.657-37.702-12.66-39.191-56.506-19.642-113.943-13.219-113.943-80.803v-94.208h160.396c15.174 94.115 100.445 114.688 164.864 129.396zM898.42 455.82c-2.7 0.838-19.828 8.285-9.123 39.471h-0.186c27.834 27.462 49.152 71.866 49.152 115.433 0 67.119-46.452 102.214-100.538 102.214-54.086 0-100.259-35.095-100.259-102.214 0-43.846 21.132-88.25 49.152-115.712 10.892-27.462-8.657-37.702-12.66-39.191-40.774-14.15-85.737-15.174-107.799-39.75 6.33-1.396 12.66-3.165 18.897-4.561 67.305-14.615 156.3-35.095 171.939-130.7h167.005v94.208c0 67.584-66.188 61.999-125.58 80.803z" />
<glyph unicode="&#x69;" d="M546.537-30.394c33.699 3.351 62.278 20.201 84.154 47.197l25.228-20.201c-31.93-38.726-75.683-60.602-126.231-60.602-104.355 0-161.606 58.927-161.606 139.729 0 52.224 15.174 112.826 26.903 183.575l59.951 284.765h-70.749l3.351 30.348h72.425c129.676 0 207.127 15.174 207.127 15.174l-120.553-619.985zM598.016 960c67.398 0 122.973-55.575 122.973-122.88 0-67.398-55.575-121.297-122.973-121.297-67.305 0-121.204 53.9-121.204 121.297 0 67.305 53.9 122.88 121.204 122.88z" />
<glyph unicode="&#x6c;" d="M837.818 661.457v112.361c0 92.905-91.136 186.182-186.182 186.182h-279.273c-99.607 0-186.182-93.091-186.182-186.182v-114.409c-63.209-34.537-93.091-114.223-93.091-257.955v-186.182c0-127.721 55.855-279.273 186.182-279.273h465.455c154.717 0 186.182 120.46 186.182 279.273v186.182c0 128.931-18.432 221.929-93.091 260.003zM372.364 773.818h279.273v-93.091h-279.273v93.091zM583.587 260.515v-103.703c0-40.122-32.116-72.797-71.587-72.797s-71.587 32.675-71.587 72.797v103.703c-42.636 25.321-71.68 71.773-71.68 125.393 0 80.337 64.14 145.594 143.174 145.594 79.127 0 143.267-65.164 143.267-145.594 0.093-53.62-28.951-100.073-71.587-125.393z" />
<glyph unicode="&#x6d;" d="M837.818 866.909c51.293 0 93.091-41.798 93.091-93.091v-372.364c0-51.293-41.798-93.091-93.091-93.091h-124.090l-248.273-186.182v186.182h-279.273c-51.293 0-93.091 41.798-93.091 93.091v372.364c0 51.293 41.798 93.091 93.091 93.091h651.636zM837.818 960h-651.636c-102.865 0-186.182-83.316-186.182-186.182v-372.364c0-102.865 83.316-186.182 186.182-186.182h186.182v-279.273l372.364 279.273h93.091c102.865 0 186.182 83.316 186.182 186.182v372.364c0 102.865-83.316 186.182-186.182 186.182v0z" />
<glyph unicode="&#x6e;" d="M714.1 349.774c-15.515 16.601-67.491 85.333-67.491 191.395 0 121.111-83.72 156.269-83.72 156.269s-21.566 11.605-51.293 11.605c-29.727 0-51.324-11.605-51.324-11.605s-83.689-35.157-83.689-156.269c0-103.021-52.007-174.794-67.491-191.395-30.099-32.24-27.276-112.547 18.184-112.547 17.47 0 69.011 0 128.434 0 0-30.751 25.010-55.668 55.886-55.668 30.875 0 55.886 24.948 55.886 55.668 58.927 0 110.158 0 128.434 0 48.035-0.031 48.283 80.306 18.184 112.547z" />
<glyph unicode="&#x6f;" d="M186.647 820.364c0-51.413-41.678-93.091-93.091-93.091s-93.091 41.678-93.091 93.091c0 51.413 41.678 93.091 93.091 93.091 51.413 0 93.091-41.678 93.091-93.091zM186.647 448c0-51.413-41.678-93.091-93.091-93.091s-93.091 41.678-93.091 93.091c0 51.413 41.678 93.091 93.091 93.091 51.413 0 93.091-41.678 93.091-93.091zM186.647 75.636c0-51.413-41.678-93.091-93.091-93.091s-93.091 41.678-93.091 93.091c0 51.413 41.678 93.091 93.091 93.091 51.413 0 93.091-41.678 93.091-93.091zM1024.465 820.364c0-51.386-47.663-93.091-106.403-93.091h-531.921c-58.74 0-106.403 41.705-106.403 93.091v0c0 51.386 47.663 93.091 106.403 93.091h531.921c58.74 0 106.403-41.705 106.403-93.091v0zM1024.465 448c0-51.386-47.663-93.091-106.403-93.091h-531.921c-58.74 0-106.403 41.705-106.403 93.091v0c0 51.386 47.663 93.091 106.403 93.091h531.921c58.74 0 106.403-41.705 106.403-93.091v0zM1024.465 75.636c0-51.386-47.663-93.091-106.403-93.091h-531.921c-58.74 0-106.403 41.705-106.403 93.091v0c0 51.386 47.663 93.091 106.403 93.091h531.921c58.74 0 106.403-41.705 106.403-93.091v0z" />
<glyph unicode="&#x70;" d="M837.818 308.364v42.356c0 84.62-82.944 77.545-157.231 101.19-3.444 1.024-24.855 10.333-11.45 49.338h-0.186c34.909 34.444 61.533 89.926 61.533 144.57 0 83.968-58.182 128-125.859 128-67.677 0-125.487-44.032-125.487-128 0-54.831 26.531-110.499 61.626-144.943 13.684-34.444-10.799-47.197-15.919-49.059-70.842-24.576-152.483-16.477-152.483-101.097v-42.356h465.455zM930.909 866.909v-837.818h-837.818v837.818h837.818zM930.909 960h-837.818c-51.386 0-93.091-41.705-93.091-93.091v-837.818c0-51.386 41.705-93.091 93.091-93.091h837.818c51.386 0 93.091 41.705 93.091 93.091v837.818c0 51.386-41.705 93.091-93.091 93.091v0zM372.364 727.273c0-25.693-20.852-46.545-46.545-46.545h-93.091c-25.693 0-46.545 20.852-46.545 46.545v0c0 25.693 20.852 46.545 46.545 46.545h93.091c25.693 0 46.545-20.852 46.545-46.545v0zM372.364 541.091c0-25.693-20.852-46.545-46.545-46.545h-93.091c-25.693 0-46.545 20.852-46.545 46.545v0c0 25.693 20.852 46.545 46.545 46.545h93.091c25.693 0 46.545-20.852 46.545-46.545v0zM837.818 168.727c0-25.693-20.852-46.545-46.545-46.545h-558.545c-25.693 0-46.545 20.852-46.545 46.545v0c0 25.693 20.852 46.545 46.545 46.545h558.545c25.693 0 46.545-20.852 46.545-46.545v0z" />
<glyph unicode="&#x72;" d="M744.727 600.436h-248.242l1.148 93.091h185.034c93.091 0 155.152-31.030 155.152-124.121v-248.242c0-93.091-62.061-124.121-155.152-124.121h-465.455l155.152 217.212 62.061-62.061-53.807-62.061h364.11v62.061l0.652 213.923-0.652 34.32z" />
<glyph unicode="&#x73;" d="M838.842 189.843l-151.211 151.831c34.195 46.39 54.644 103.61 54.644 165.764 0.031 154.19-124.463 279.18-278.032 279.18-153.538 0-278.063-124.99-278.063-279.18 0-154.252 124.525-279.242 278.063-279.242 47.383 0 91.943 11.978 130.979 32.954l157.324-157.975 86.295 86.668zM265.619 507.439c0 110.127 88.902 199.401 198.594 199.401s198.594-89.274 198.594-199.401c0-110.158-88.902-199.463-198.594-199.463-109.692 0.031-198.594 89.305-198.594 199.463z" />
<glyph unicode="&#x74;" d="M884.364 773.818h-139.636c0 0 0 113.943 0 139.636 0 25.693-20.852 46.545-46.545 46.545h-372.364c-25.693 0-46.545-20.852-46.545-46.545s0-139.636 0-139.636h-139.636c-25.693 0-46.545-20.852-46.545-46.545s0-139.636 0-139.636h93.091v-558.545c0-51.386 41.705-93.091 93.091-93.091h465.455c51.386 0 93.091 41.705 93.091 93.091v558.545h93.091c0 0 0 113.943 0 139.636 0 25.693-20.852 46.545-46.545 46.545zM372.364 866.909h279.273v-93.091h-279.273v93.091zM372.364 122.182h-93.091v372.364h93.091v-372.364zM558.545 122.182h-93.091v372.364h93.091v-372.364zM744.727 122.182h-93.091v372.364h93.091v-372.364z" />
<glyph unicode="&#x75;" d="M1024-64v93.091c0 186.182-182.458 170.729-345.926 222.58-7.447 2.42-54.551 22.807-25.135 108.73h-0.372c76.8 75.776 135.354 197.911 135.354 317.999 0 184.785-128 281.6-276.852 281.6-148.852 0-276.201-96.815-276.201-281.693 0-120.646 58.275-243.153 135.447-318.836 30.068-75.776-23.738-103.796-34.909-107.799-155.834-54.086-335.407-36.399-335.407-222.58v-93.091h1024z" />
<glyph unicode="&#x77;" d="M0 29.091h1024v-93.091h-1024v93.091zM862.606 962.848l161.468-161.468-565.038-565.038-161.468 161.468 565.038 565.038zM378.228 155.601l-194.932-33.42 33.513 194.839z" />
<glyph unicode="&#x78;" d="M186.182 972.8l-186.182-186.182 333.265-327.121-333.265-324.515 186.182-186.182 321.908 339.037 169.798 172.404zM1024 786.618l-186.182 186.182-491.706-512.559 169.798-172.404 321.908-339.037 186.182 186.182-333.265 324.515z" />
<glyph unicode="&#xf3;" d="M512 765.6c-282.8 0-512-250.6-512-302s229.2-307.8 512-307.8 512 256.2 512 307.8c0 51.4-229.2 302-512 302zM512 318.2c-80.4 0-145.4 65.2-145.4 145.4 0 80.4 65.2 145.4 145.4 145.4s145.4-65.2 145.4-145.4c0-80.4-65-145.4-145.4-145.4z" />
<glyph unicode="&#xe600;" d="M651.636 866.909v-93.091h93.091v186.182h-744.727v-744.727h186.182v93.091h-93.091v558.545h651.636zM862.538 785.406l161.468-161.468-493.026-493.026-161.468 161.468 493.026 493.026zM462.569 62.511l-194.839-33.42 33.42 194.839z" />
<glyph unicode="&#xe604;" d="M862.767 266.147l-211.13 42.217 42.217-211.13 42.217 42.263 84.433-84.48 84.48 84.48-84.433 84.433zM330.147 798.767l-168.913-168.913 211.13-42.217zM203.473 840.948l84.453-84.453-84.453-84.453-84.453 84.453 84.453 84.453zM203.497 223.93l-84.48-84.433 84.48-84.48 84.433 84.48 42.217-42.263 42.217 211.13-211.13-42.217zM693.853 798.767l-42.217-211.13 211.13 42.217zM820.523 840.951l84.453-84.453-84.453-84.453-84.453 84.453 84.453 84.453zM605.091 448c0-51.413-41.678-93.091-93.091-93.091s-93.091 41.678-93.091 93.091c0 51.413 41.678 93.091 93.091 93.091 51.413 0 93.091-41.678 93.091-93.091z" />
<glyph unicode="&#xe606;" d="M930.909 680.727h-837.818c-51.386 0-93.091-41.705-93.091-93.091v-279.273c0-51.386 41.705-93.091 93.091-93.091h93.091v-279.273h651.636v279.273h93.091c51.386 0 93.091 41.705 93.091 93.091v279.273c0 51.386-41.705 93.091-93.091 93.091zM744.727 29.091h-465.455v372.364h465.455v-372.364zM186.182 960h651.636v-186.182h-651.636v186.182z" />
<glyph unicode="&#xe607;" d="M884.364 75.636l-42.217 211.13-168.913-168.913zM631.043 244.508l84.453 84.453 84.453-84.453-84.453-84.453-84.453 84.453zM350.767 778.147l-211.13 42.217 42.217-211.13zM308.536 567.059l-84.453 84.453 84.453 84.453 84.453-84.453-84.453-84.453zM715.497 567.017l84.433 84.48 42.217-42.263 42.217 211.13-211.13-42.217 42.263-42.217-84.48-84.433zM139.636 75.636l211.13 42.217-168.913 168.913zM308.525 160.093l-84.453 84.453 84.453 84.453 84.453-84.453-84.453-84.453z" />
<glyph unicode="&#xe608;" d="M541.789-58.415c-28.113-14.429-64.326-0.093-80.896 32.023l-401.501 781.964c-16.477 32.209-7.075 70.004 21.039 84.433v0c28.113 14.429 64.326 0.093 80.896-32.023l401.501-781.964c16.57-32.116 7.075-69.911-21.039-84.433v0zM287.372 786.944l189.068-378.228 547.561 157.324c0 0-144.663 160.954-57.251 343.692 76.986 160.861-679.377-122.787-679.377-122.787z" />
<glyph unicode="&#xe60a;" d="M920.39 126.65l-86.575 82.432c15.686 28.719 25.414 61.207 25.414 96.256 0 111.616-90.484 202.147-202.147 202.147-111.616 0-202.147-90.484-202.147-202.147 0-111.663 90.531-202.193 202.147-202.193 33.978 0 65.489 9.169 93.556 23.971l85.085-85.085 84.666 84.62zM512.698 305.292c0 79.732 64.652 144.384 144.384 144.384s144.384-64.652 144.384-144.384c0-79.779-64.652-144.431-144.384-144.431-79.732 0.047-144.384 64.698-144.384 144.431zM129.117 833.257v-698.182h279.273v46.545h-232.727v605.091h605.091v-232.727h46.545v279.273zM687.663 367.802h-46.545v-46.545h-46.545v-46.545h46.545v-46.545h46.545v46.545h46.545v46.545h-46.545z" />
<glyph unicode="&#xe60c;" d="M451.398 325.306h-36.678c-126.045 0-228.538 102.493-228.538 228.445v126.976h-50.735c-74.845 0-135.447-60.602-135.447-135.447v-270.801c0-74.752 60.602-135.447 135.447-135.447h135.447v-203.031l270.801 203.124h67.677c24.204 0 46.639 6.889 66.281 17.967l-224.256 168.215zM888.553 960h-473.833c-74.845 0-135.447-60.602-135.447-135.447v-270.801c0-74.752 60.602-135.447 135.447-135.447h67.677l270.801-203.031v203.124h135.447c74.752 0 135.354 60.602 135.354 135.354v270.801c0 74.845-60.602 135.447-135.447 135.447zM698.182 494.545h-186.182c-25.693 0-46.545 20.852-46.545 46.545 0 25.693 20.852 46.545 46.545 46.545h186.182c25.693 0 46.545-20.852 46.545-46.545 0-25.693-20.852-46.545-46.545-46.545zM791.273 680.727h-279.273c-25.693 0-46.545 20.852-46.545 46.545 0 25.693 20.852 46.545 46.545 46.545h279.273c25.693 0 46.545-20.852 46.545-46.545s-20.852-46.545-46.545-46.545z" />
<glyph unicode="&#xe60d;" d="M1024 680.727l-558.545 279.273-465.455-279.273 465.455-279.273 558.545 279.273zM0 587.636v-93.091l465.455-279.273 558.545 279.273v93.091l-558.545-279.273-465.455 279.273zM0 401.455v-186.182l465.455-279.273 558.545 279.273v186.182l-558.545-279.273-465.455 279.273z" />
<glyph unicode="&#xe60e;" d="M512 820.364c0-25.706-20.839-46.545-46.545-46.545s-46.545 20.839-46.545 46.545c0 25.706 20.839 46.545 46.545 46.545 25.706 0 46.545-20.839 46.545-46.545zM512 634.182c0-25.706-20.839-46.545-46.545-46.545s-46.545 20.839-46.545 46.545c0 25.706 20.839 46.545 46.545 46.545 25.706 0 46.545-20.839 46.545-46.545zM930.909 820.364c0-25.693-23.831-46.545-53.201-46.545h-265.961c-29.37 0-53.201 20.852-53.201 46.545v0c0 25.693 23.831 46.545 53.201 46.545h265.961c29.37 0 53.201-20.852 53.201-46.545v0zM930.909 634.182c0-25.693-23.831-46.545-53.201-46.545h-265.961c-29.37 0-53.201 20.852-53.201 46.545v0c0 25.693 23.831 46.545 53.201 46.545h265.961c29.37 0 53.201-20.852 53.201-46.545v0zM930.909 448c0-25.693-23.831-46.545-53.201-46.545h-265.961c-29.37 0-53.201 20.852-53.201 46.545v0c0 25.693 23.831 46.545 53.201 46.545h265.961c29.37 0 53.201-20.852 53.201-46.545v0zM493.754 215.645c-4.422 1.396-32.256 13.452-14.895 64.233h-0.233c34.63 34.164 62.883 84.387 74.38 137.821-12.614-36.399-46.918-62.79-87.552-62.79-51.34 0-93.091 41.751-93.091 93.091 0 27.927 12.614 52.736 32.163 69.818-19.549 17.082-32.163 41.891-32.163 69.818 0 16.71 4.748 32.163 12.474 45.708-83.409-4.329-152.995-60.649-152.995-165.562 0-71.308 34.444-143.686 80.058-188.416 17.78-44.777-14.010-61.347-20.666-63.721-92.020-31.977-198.144-21.551-198.144-131.537v-55.017h605.091v55.017c0 109.987-107.799 100.864-204.428 131.537zM512 448c0-25.706-20.839-46.545-46.545-46.545s-46.545 20.839-46.545 46.545c0 25.706 20.839 46.545 46.545 46.545 25.706 0 46.545-20.839 46.545-46.545z" />
<glyph unicode="&#xe611;" d="M724.852 682.403c-126.557 126.557-330.38 127.953-455.215 3.165v-0.093l-60.416 60.416c-13.172 13.172-22.481 1.303-21.178-22.342l6.237-148.48c1.257-22.528 6.237-24.995 26.112-26.112l148.852-6.609c23.645-1.303 37.329 6.144 22.761 20.759l-56.972 56.925h0.093c89.181 89.181 234.729 88.157 325.12-2.234 90.438-90.438 91.415-235.985 2.234-325.12-89.181-89.181-234.775-88.204-325.167 2.188l-64.559-64.559c126.557-126.557 330.38-128 455.261-3.119 124.835 124.835 123.392 328.657-3.165 455.215z" />
<glyph unicode="&#xe612;" d="M877.382 611.514l-56.506 28.253-43.287-86.575c-46.313 116.177-159.651 198.33-292.305 198.33-173.801 0-314.694-140.893-314.694-314.694s140.893-314.647 314.694-314.647c105.798 0 199.401 52.224 256.465 132.282l-66.746 54.551c-41.193-60.881-110.871-101.004-189.719-101.004-126.185 0-228.864 102.679-228.864 228.864 0 126.185 102.679 228.864 228.864 228.864 96.768 0 179.526-60.463 212.945-145.501l-94.441 47.244-28.253-56.506 201.263-100.631 100.585 201.169z" />
<glyph unicode="&#xe613;" d="M512 849.036c-143.825 0-270.522-124.975-270.522-268.8 0-316.463 253.161-433.99 253.161-537.135 0-14.010 11.543-14.010 17.361-14.010s17.361 0 17.361 14.057c0 103.145 253.161 220.672 253.161 537.135 0 143.825-126.697 268.753-270.522 268.753zM512 487.284c-51.34 0-92.998 41.658-92.998 92.998 0 51.34 41.658 92.998 92.998 92.998s92.998-41.658 92.998-92.998c0-51.386-41.658-92.998-92.998-92.998z" />
<glyph unicode="&#xe614;" d="M865.373 962.829l161.468-161.468-493.026-493.026-161.468 161.468 493.026 493.026zM465.455 240.035l-194.839-33.42 33.42 194.839zM279.273 79.267c0-75.114-60.892-136.006-136.006-136.006s-136.006 60.892-136.006 136.006c0 75.114 60.892 136.006 136.006 136.006 75.114 0 136.006-60.892 136.006-136.006z" />
<glyph unicode="&#xe616;" d="M1024 385.164v128.186l-152.39 24.855c-9.030 36.026-23.18 70.004-41.891 101.097l88.809 126.604-90.577 90.484-124.928-89.833c-31.185 18.897-65.35 33.233-101.655 42.263l-26.531 151.645h-128.093l-24.669-151.18c-36.399-8.937-70.656-23.087-101.935-41.891l-124.649 88.995-90.577-90.484 87.599-125.3c-18.897-31.465-33.327-65.629-42.449-102.307l-150.528-25.041v-128.093l150.342-26.531c9.123-36.585 23.552-70.935 42.543-102.4l-88.902-124.183 90.577-90.577 125.487 87.878c31.372-18.897 65.629-33.14 102.028-42.077l25.135-151.273h128.093l26.903 151.645c36.212 9.216 70.377 23.552 101.376 42.543l126.324-88.716 90.484 90.577-90.112 125.207c18.711 31.185 32.861 65.071 41.798 101.283l152.39 26.624zM511.814 215.738c-128.652 0-232.913 104.076-232.913 232.541-0.093 128.372 104.262 232.448 232.913 232.448 128.652 0 232.913-104.076 232.913-232.448 0-128.559-104.262-232.541-232.913-232.541z" />
<glyph unicode="&#xe617;" d="M778.566 619.38h-533.132c-32.721 0-59.252-26.531-59.252-59.252v-177.711c0-32.721 26.531-59.252 59.252-59.252h59.252v-177.711h414.673v177.711h59.252c32.721 0 59.252 26.531 59.252 59.252v177.711c-0.047 32.721-26.577 59.252-59.299 59.252zM660.108 204.707h-296.215v236.963h296.215v-236.963zM279.273 773.818h465.455v-93.091h-465.455v93.091z" />
<glyph unicode="&#xe618;" d="M756.364 813.987h-488.727c-77.126 0-139.636-62.511-139.636-139.636v-279.273c0-77.126 62.511-139.636 139.636-139.636h139.636v-209.455l279.273 209.455h69.818c77.126 0 139.636 62.511 139.636 139.636v279.273c0 77.126-62.511 139.636-139.636 139.636v0z" />
<glyph unicode="&#xe619;" d="M348.765 665.74h116.689v-124.649c0-30.58 23.412-46.545 46.545-46.545h9.309c23.133 0 37.236 15.965 37.236 46.545v124.649h116.038c26.019 0 20.48 21.132-1.769 43.427l-137.868 142.755c-18.711 18.711-25.321 21.225-46.545 0l-138.612-142.755c-22.249-22.295-24.529-43.427-1.024-43.427zM675.235 230.26h-116.689v124.649c0 30.58-23.412 46.545-46.545 46.545h-9.309c-23.133 0-37.236-15.965-37.236-46.545v-124.649h-116.038c-26.019 0-20.48-21.132 1.769-43.427l137.868-142.755c18.711-18.711 25.321-21.225 46.545 0l138.612 142.755c22.249 22.295 24.529 43.427 1.024 43.427zM915.921 471.599l-142.755 138.612c-22.295 22.249-43.427 24.529-43.427 1.024v-116.689h-124.649c-30.58 0-46.545-23.412-46.545-46.545v-9.309c0-23.133 15.965-37.236 46.545-37.236h124.649v-116.038c0-26.019 21.132-20.48 43.427 1.769l142.755 137.868c18.711 18.711 21.225 25.321 0 46.545zM418.909 401.455c30.58 0 46.545 23.412 46.545 46.545v9.309c0 23.133-15.965 37.236-46.545 37.236h-124.649v116.038c0 26.019-21.132 20.48-43.427-1.769l-142.755-137.868c-18.711-18.711-21.225-25.321 0-46.545l142.755-138.612c22.295-22.249 43.427-24.529 43.427-1.024v116.689h124.649z" />
<glyph unicode="&#xe61a;" d="M756.364 744.727c38.493 0 69.818-31.325 69.818-69.818v-279.273c0-38.493-31.325-69.818-69.818-69.818h-93.091l-186.182-139.636v139.636h-209.455c-38.493 0-69.818 31.325-69.818 69.818v279.273c0 38.493 31.325 69.818 69.818 69.818h488.727zM756.364 814.545h-488.727c-77.126 0-139.636-62.511-139.636-139.636v-279.273c0-77.126 62.511-139.636 139.636-139.636h139.636v-209.455l279.273 209.455h69.818c77.126 0 139.636 62.511 139.636 139.636v279.273c0 77.126-62.511 139.636-139.636 139.636v0z" />
<glyph unicode="&#xe61b;" d="M716.171 866.905l35.776-35.776-588.34-588.34-35.776 35.776 588.34 588.34zM895.116 687.988l-143.174 143.127-34.583-34.583 143.174-143.174-69.26-69.213-71.54 71.587-34.63-34.63 71.587-71.587 28.486 28.532-97.699-97.745-107.38 107.38-34.583-34.63 107.334-107.334-69.213-69.213-71.54 71.587-34.63-34.63 71.587-71.587-69.213-69.213-107.38 107.38-34.63-34.63 107.38-107.334-69.213-69.213-71.587 71.54-34.583-34.583 71.54-71.587-34.583-34.63-178.967 178.967-34.583-34.63 214.714-214.714 622.964 622.964z" />
<glyph unicode="&#xe61c;" d="M326.284 866.909h-186.554v-45.103h186.508l-0.419-513.443h-139.636v-45.103h139.916v45.103h46.266v558.545h-46.080zM93.091 587.636h-0.279v-45.103h0.279v-280.716h46.545v141.079h92.998v45.103h-92.951v94.534h93.044v45.103h-93.044v93.091h92.765l0.186 45.103h-92.951v141.079h-46.592v-279.273zM371.386 866.909l-32.908-32.908 558.685-558.825 32.954 32.954-558.732 558.778zM635.718 470.947l-96.768-96.768-66.793 66.886 63.814 63.814-31.884 31.884-63.814-63.814-66.839 66.886 96.675 96.675-31.884 31.884-98.909-98.909 21.225-21.225-30.627-30.673 242.921-242.595 32.582 32.582-34.63 34.676 96.815 96.815-31.884 31.884zM930.909 261.725v46.639h-791.273v-46.545l791.273-0.093zM885.807 261.725v-186.508l-513.443 0.279v139.776h-45.103v-139.776l-189.068 0.093 1.443 232.774h-46.545v-279.273h837.818v232.634h-45.103zM231.284 168.913h-45.103v-93.277h45.103v93.277zM512 168.727h-45.103v-93.277h45.103v93.277zM651.636 215.273h-45.103v-139.916h45.103v139.916zM789.83 168.727h-45.103v-93.091l45.103-0.186v93.277z" />
<glyph unicode="&#xe61d;" d="M249.158 748.451c0-41.49-33.634-75.124-75.124-75.124s-75.124 33.634-75.124 75.124c0 41.49 33.634 75.124 75.124 75.124 41.49 0 75.124-33.634 75.124-75.124zM249.158 448c0-41.49-33.634-75.124-75.124-75.124s-75.124 33.634-75.124 75.124c0 41.49 33.634 75.124 75.124 75.124 41.49 0 75.124-33.634 75.124-75.124zM249.158 147.549c0-41.49-33.634-75.124-75.124-75.124s-75.124 33.634-75.124 75.124c0 41.49 33.634 75.124 75.124 75.124 41.49 0 75.124-33.634 75.124-75.124zM925.091 748.451c0-41.472-38.447-75.124-85.83-75.124h-429.196c-47.383 0-85.83 33.606-85.83 75.124v0c0 41.472 38.447 75.124 85.83 75.124h429.196c47.383-0.047 85.83-33.652 85.83-75.124v0zM925.091 448c0-41.472-38.447-75.124-85.83-75.124h-429.196c-47.383 0-85.83 33.606-85.83 75.124v0c0 41.472 38.447 75.124 85.83 75.124h429.196c47.383 0 85.83-33.652 85.83-75.124v0zM925.091 147.549c0-41.472-38.447-75.124-85.83-75.124h-429.196c-47.383 0-85.83 33.606-85.83 75.124v0c0 41.472 38.447 75.124 85.83 75.124h429.196c47.383 0 85.83-33.606 85.83-75.124v0z" />
<glyph unicode="&#xe61e;" d="M837.818 596.108l-355.421 177.711-296.215-177.711 296.215-177.711 355.421 177.711zM186.182 536.855v-59.252l296.215-177.711 355.421 177.711v59.252l-355.421-177.711-296.215 177.711zM186.182 418.397v-118.458l296.215-177.757 355.421 177.711v118.458l-355.421-177.711-296.215 177.757z" />
<glyph unicode="&#xe620;" d="M279.645 193.815v98.211c0 72.704 56.553 85.644 106.449 97.047 15.22 3.491 31.046 7.075 46.313 12.381 3.491 1.396 11.171 6.47 6.237 21.69-36.817 37.562-59.578 92.3-59.578 143.825 0 93.463 66.793 135.308 132.98 135.308 78.476 0 133.213-55.622 133.213-135.308 0-50.083-23.040-105.705-59.020-142.941-3.91-13.219-2.001-20.899 1.676-22.528 14.988-4.748 30.767-8.145 45.94-11.45 52.224-11.357 111.383-24.204 111.383-97.932v-98.211h-465.594zM371.060 415.744c6.237 1.443 12.381 3.305 18.665 4.841-17.455 18.897-52.736 19.875-85.597 30.301-2.095 0.652-15.267 6.377-7.028 30.394h-0.093c21.457 21.178 37.888 55.389 37.888 88.948 0 51.712-35.84 78.801-77.452 78.801-41.658 0-77.265-27.089-77.265-78.801 0-33.745 16.337-68.003 37.888-89.228 8.425-21.178-6.656-29.044-9.775-30.161-43.567-15.127-93.836-10.193-93.836-62.278v-72.611h129.583c11.636 72.657 77.359 88.436 127.023 99.793zM812.777 450.932c-2.095 0.652-15.267 6.377-7.028 30.394h-0.093c21.457 21.178 37.888 55.389 37.888 88.948 0 51.712-35.84 78.801-77.452 78.801-41.658 0-77.265-27.089-77.265-78.801 0-33.745 16.337-68.003 37.888-89.228 8.425-21.178-6.656-29.044-9.775-30.161-31.465-10.938-66.095-11.636-83.13-30.627 4.887-1.117 9.728-2.42 14.569-3.491 51.852-11.264 120.46-27.043 132.515-100.724h128.652v72.611c0.047 52.084-51.014 47.756-96.768 62.278z" />
<glyph unicode="&#xe621;" d="M186.182 773.818v-651.636h651.636v651.636h-651.636zM279.273 215.273v465.455h465.455v-465.455h-465.455z" />
<glyph unicode="&#xe622;" d="M403.409 680.727h217.228l130.327-186.182v-93.091l-130.327-186.182h-217.228l-130.327 186.182v93.091l130.327 186.182zM186.182 541.137v-186.228l173.754-232.727h304.081l173.801 232.681v186.228l-173.754 232.727h-304.128l-173.754-232.681zM707.491 587.636z" />
<glyph unicode="&#xe623;" d="M512 448v325.818h-325.818v-651.636h651.636v325.818h-325.818zM744.727 215.273h-465.455v465.455h139.636v-325.818h325.818v-139.636z" />
<glyph unicode="&#xe624;" d="M698.182 773.818h-372.364l-186.182-325.818 186.182-325.818h372.364l46.545 93.091 139.636 232.727-186.182 325.818zM651.636 215.273h-279.273l-139.636 232.727 139.636 232.727h279.273l139.636-232.727-139.636-232.727z" />
<glyph unicode="&#xe625;" d="M651.636 773.818h-279.273l-186.182-186.182v-465.455h651.636v465.455l-186.182 186.182zM279.273 215.273v325.818l139.636 139.636h186.182l139.636-139.636v-325.818h-465.455z" />
<glyph unicode="&#xe626;" d="M538.298 33.652c-22.854-11.729-52.271-0.093-65.722 26.065l-326.33 635.485c-13.405 26.112-5.772 56.832 17.129 68.561v0c22.854 11.729 52.271 0.093 65.722-26.065l326.33-635.485c13.359-26.112 5.725-56.785-17.129-68.561v0zM279.273 727.273l186.182-325.818 418.909 139.636c0 0-162.909 162.909-46.545 279.273s-558.545-93.091-558.545-93.091z" />
<glyph unicode="&#xe627;" d="M498.316 773.818l-141.871-347.648-123.718-307.433h337.641l80.803 187.159 141.871 347.648-294.726 120.273zM539.741 165.283h-238.080l80.524 200.099 207.407-84.62-49.85-115.479z" />
<glyph unicode="&#xe628;" d="M589.684 820.364l-141.871-347.648-122.042-303.197c-0.14 51.247-41.751 92.812-93.044 92.812-51.433 0-93.091-41.658-93.091-93.091 0-51.433 41.658-93.091 93.091-93.091 50.083 0 90.577 39.61 92.719 89.181h336.291l80.803 187.159 141.824 347.648-294.679 120.227zM631.11 211.828h-238.127l80.524 200.099 207.407-84.62-49.804-115.479zM325.818 448c0-51.413-41.678-93.091-93.091-93.091s-93.091 41.678-93.091 93.091c0 51.413 41.678 93.091 93.091 93.091 51.413 0 93.091-41.678 93.091-93.091zM327.168 727.273c0-51.413-41.678-93.091-93.091-93.091s-93.091 41.678-93.091 93.091c0 51.413 41.678 93.091 93.091 93.091 51.413 0 93.091-41.678 93.091-93.091z" />
<glyph unicode="&#xe629;" d="M93.231 105.193h836.934v-76.102h-836.934v76.102zM798.166 868.347l131.945-131.945-461.825-461.825-131.945 131.945 461.825 461.825zM402.339 208.57l-159.279-27.322 27.322 159.279z" />
<glyph unicode="&#xe62a;" d="M259.305 308.364l55.575 30.487-59.904 109.149h117.388l-279.273 279.273v-380.183l103.843 75.031zM930.909 680.727v139.636h-139.636v-46.545h-139.636v46.545h-139.636v-46.545h-139.636v46.545h-139.636v-139.636h139.636v46.545h139.636v-46.545h139.636v46.545h139.636v-46.545h46.545v-139.636h-46.545v-139.636h46.545v-139.636h-46.545v-46.545h-139.636v46.545h-139.636v-46.545h-139.636v46.545h-139.636v-139.636h139.636v46.545h139.636v-46.545h139.636v46.545h139.636v-46.545h139.636v139.636h-46.545v139.636h46.545v139.636h-46.545v139.636z" />
<glyph unicode="&#xe62b;" d="M485.097 269.498l-159.279-27.322 27.322 159.279zM752.437 820.374l131.945-131.945-376.187-376.187-131.945 131.945 376.187 376.187zM232.727 261.818c-51.433 0-93.091-41.658-93.091-93.091s41.658-93.091 93.091-93.091 93.091 41.658 93.091 93.091c0 51.433-41.658 93.091-93.091 93.091z" />
<glyph unicode="&#xe62d;" d="M186.182 541.091h279.273v279.273h-279.273v-279.273zM226.071 780.474h199.494v-199.494h-199.494v199.494zM837.818 580.98v159.604l-79.779 79.779h-119.668l-79.825-79.779v-199.494h279.273v39.889zM598.435 580.98v139.636l59.857 59.857h79.779l59.857-59.857v-139.636h-199.494zM765.114 401.455h-179.619l-73.495-139.636 73.449-139.636h178.921l73.449 139.636-72.704 139.636zM743.983 166.54l-138.892 2.188-46.545 93.091 46.545 93.091h139.636l47.29-93.091-48.035-95.279zM325.818 301.708v99.747h-139.636v-279.273h279.273v139.636h-139.636v39.889zM425.565 221.929v-59.857h-199.494v199.494h59.857v-139.636h139.636z" />
<glyph unicode="&#xe62e;" d="M791.273 587.636c51.433 0 93.091 41.658 93.091 93.091s-41.658 93.091-93.091 93.091c-44.125 0-80.849-30.767-90.484-71.959l-375.296 75.078c-1.676 49.943-42.403 89.972-92.765 89.972-51.433 0-93.091-41.658-93.091-93.091 0-37.702 22.528-70.004 54.737-84.62l-26.671-479.791c-35.793-12.94-61.533-46.964-61.533-87.226 0-51.433 41.658-93.091 93.091-93.091 48.175 0 87.319 36.724 92.113 83.642l361.007 48.128c4.096-47.663 43.613-85.225 92.346-85.225 51.433 0 93.091 41.658 93.091 93.091 0 51.433-41.658 93.091-93.091 93.091-4.608 0-9.076-0.698-13.498-1.35l-43.101 101.935c33.28 14.15 56.599 47.151 56.599 85.597 0 33.233-17.548 62.185-43.706 78.662l47.802 71.68c12.753-6.609 27.043-10.705 42.449-10.705zM651.636 541.091c-51.433 0-93.091-41.658-93.091-93.091 0-47.523 35.747-86.295 81.734-91.927l48.081-113.711c-11.497-8.844-20.852-20.154-27.183-33.327l-376.32-50.176c-12.288 28.672-38.586 49.664-70.237 54.924l25.972 467.782c32.675 2.793 60.369 22.202 74.659 49.99l387.305-77.452c2.653-8.751 6.191-17.082 11.124-24.576l-59.113-88.716c-1.024 0-1.955 0.279-2.932 0.279z" />
<glyph unicode="&#xe630;" d="M780.055 587.636v-372.364h-512v372.364h512zM826.601 634.182h-605.091v-465.455h605.091v465.455zM361.146 587.636h46.545v-372.364h-46.545v372.364zM500.783 587.636h46.545v-372.364h-46.545v372.364zM640.419 587.636h46.545v-372.364h-46.545v372.364zM221.51 494.545h558.545v-46.545h-558.545v46.545zM221.51 354.909h558.545v-46.545h-558.545v46.545zM407.692 448h93.091v-93.091h-93.091v93.091zM826.601 727.273c0-25.693 0-46.545 0-46.545h-605.091c0 0 0 20.852 0 46.545v0c0 25.693 20.852 46.545 46.545 46.545h512c25.693 0 46.545-20.852 46.545-46.545v0zM221.51 634.182h46.545v-465.455h-46.545v465.455z" />
<glyph unicode="&#xe631;" d="M116.364 852.201v-698.182h279.273v46.545h-232.727v605.091h605.091v-232.727h46.545v279.273zM907.636 373.388l-178.083 0.838-68.003 175.197-71.866-175.197h-174.359l125.905-134.796-81.175-178.502 201.402 90.438 205.172-90.438-80.663 179.014z" />
<glyph unicode="&#xe632;" d="M910.103 402.991l-114.036 315.718-88.669-32.023 49.012-135.68c-173.149 69.399-378.508 31.279-514.886-112.128-73.216-76.94-115.153-172.172-126.324-270.15h129.303c10.38 66.141 40.215 129.862 89.74 181.946 99.514 104.588 249.949 131.863 376.273 80.477l-148.201-53.527 32.023-88.669 315.764 114.036z" />
<glyph unicode="&#xe633;" d="M805.097 438.924c-136.425 143.36-341.783 181.481-514.886 112.128l49.012 135.68-88.669 31.977-114.036-315.718 315.764-114.036 32.023 88.669-148.201 53.527c126.278 51.386 276.759 24.111 376.273-80.477 49.524-52.038 79.36-115.805 89.74-181.946l129.35 0.047c-11.171 97.978-53.155 193.21-126.371 270.15z" />
<glyph unicode="&#xe635;" d="M287.092 479.511l-0.341-168.805c-0.652-114.812 91.912-207.376 206.786-206.755 114.843 0.652 208.462 94.301 209.082 209.082l0.372 166.509h-415.899zM432.407 602.112l0.248 29.696c0.155 23.862 15.794 43.939 37.236 51.2l0.279 92.284c-102.245-13.715-181.962-100.569-182.582-206.32l-0.279-45.677h181.403l0.31 28.051c-21.318 7.044-36.74 26.965-36.616 50.766zM522.768 775.633l-0.31-94.022c18.866-8.285 31.992-27.089 31.868-49.121l-0.217-29.665c-0.155-22.063-13.498-40.991-32.458-49.493l-0.279-30.037h181.869l0.279 48.004c0.559 105.875-78.445 192.016-180.752 204.335zM522.519 632.273l-0.217-29.603c-0.062-5.958-2.389-11.605-6.64-15.825-4.22-4.22-9.837-6.547-15.794-6.578l-13.591-0.062c-12.257-0.062-22.187 9.868-22.094 22.094l0.217 29.665c0.062 5.958 2.42 11.574 6.64 15.794 4.251 4.251 9.837 6.609 15.732 6.578l13.653 0.062c5.927 0.031 11.512-2.234 15.67-6.392 4.189-4.189 6.454-9.775 6.423-15.732z" />
<glyph unicode="&#xe637;" d="M653.281 863.232h-285.262c-49.028 0-88.747-41.612-88.747-92.874v-619.117c0-51.262 39.719-92.874 88.778-92.874h285.262c49.028 0 88.778 41.581 88.778 92.874v619.117c-0.031 51.262-39.75 92.874-88.809 92.874zM481.342 106.93c-15.236 0-27.586 12.909-27.586 28.858 0 15.919 12.35 28.858 27.586 28.858h58.678c15.236 0 27.586-12.909 27.586-28.858s-12.35-28.858-27.586-28.858h-58.678zM702.992 228.631c0-8.564-6.609-15.484-14.801-15.484h-355.080c-8.192 0-14.801 6.92-14.801 15.484v506.135c0 8.564 6.609 15.484 14.801 15.484h355.080c8.192 0 14.801-6.92 14.801-15.484v-506.135z" />
<glyph unicode="&#xe638;" d="M512 825.127c-128.528 0-241.788-111.678-241.788-240.206 0-282.841 226.273-387.879 226.273-480.070 0-12.536 10.302-12.536 15.515-12.536s15.515 0 15.515 12.536c0 92.191 226.273 197.229 226.273 480.070 0 128.528-113.261 240.206-241.788 240.206zM512 501.791c-45.894 0-83.13 37.205-83.13 83.13 0 45.894 37.205 83.13 83.13 83.13s83.13-37.205 83.13-83.13c0-45.894-37.236-83.13-83.13-83.13z" />
<glyph unicode="&#xe63b;" d="M604.439 397.56l-19.425 49.897-56.816-8.906c-9.433 13.312-20.604 24.948-33.233 34.692l10.643 56.692-48.997 21.535-33.73-46.328c-15.794 2.762-32.023 3.227-48.345 1.117l-32.396 47.352-49.928-19.425 8.875-56.289c-13.467-9.433-25.259-20.697-35.064-33.358l-55.917 10.985-21.535-49.028 45.521-34.226c-2.731-15.856-3.196-32.147-1.086-48.593l-47.135-31.62 19.425-49.897 56.258 7.944c9.526-13.529 20.914-25.259 33.699-35.095l-11.047-55.73 49.028-21.566 34.288 45.615c15.856-2.7 32.085-3.103 48.407-0.962l31.713-47.414 49.928 19.425-8.006 56.848c13.343 9.495 25.010 20.852 34.723 33.513l56.537-10.643 21.535 49.028-46.483 33.823c2.669 15.732 3.072 31.868 0.962 48.097l47.6 32.52zM425.767 266.24c-43.194-16.818-91.819 4.561-108.668 47.756-16.818 43.163 4.561 91.788 47.787 108.637 43.194 16.818 91.819-4.561 108.606-47.725 16.849-43.225-4.53-91.881-47.725-108.668zM837.818 604.563l-0.528 40.929-43.070 8.906c-3.165 12.102-8.037 23.397-14.46 33.823l22.869 37.671-29.324 28.61-36.585-24.142c-10.55 6.268-22.063 10.892-34.351 13.808l-10.457 42.574-40.96-0.496-8.751-42.667c-12.195-3.134-23.645-8.037-34.102-14.491l-37.050 22.869-28.641-29.293 23.428-36.74c-6.237-10.581-10.923-22.187-13.871-34.537l-42.263-9.93 0.528-40.929 42.449-9.495c3.165-12.195 8.13-23.614 14.677-34.133l-22.869-36.895 29.324-28.672 36.771 23.459c10.612-6.175 22.125-10.799 34.413-13.684l10.023-42.48 40.929 0.528 9.557 42.853c12.071 3.196 23.49 8.192 33.854 14.708l37.64-22.838 28.548 29.324-24.173 36.678c6.113 10.55 10.736 22 13.591 34.164l42.853 10.519zM648.13 561.431c-33.761 14.119-49.742 52.969-35.592 86.854 14.15 33.761 53.031 49.68 86.823 35.53 33.792-14.15 49.742-53 35.592-86.823-14.15-33.792-53-49.711-86.823-35.561z" />
</font>
</defs>
</svg>
